<svg version="1.1" viewBox="0 0 512 512" xmlns="http://www.w3.org/2000/svg"><defs><linearGradient id="a" x1="-2.178e-5" x2="512" y1="8.266e-6" y2="512" gradientUnits="userSpaceOnUse"><stop stop-color="#f00" offset="0"/><stop stop-color="#00f" offset="1"/></linearGradient></defs><g stroke-linecap="round" stroke-linejoin="round"><rect width="512" height="512" fill="url(#a)" style="paint-order:stroke fill markers"/><path d="m52.67 161.2 36.51 88.15-17.15 130.3a4.866 4.866 0 004.19 5.46l9.649 1.27a4.866 4.866 0 005.46-4.19l12.75-96.84 64.05 154.6a4.866 4.866 0 006.358 2.634l8.992-3.725a4.866 4.866 0 002.634-6.358l-64.05-154.6 77.49 59.46a4.866 4.866 0 006.823-.8983l5.925-7.721a4.866 4.866 0 00-.8983-6.823l-104.2-79.99-36.51-88.15a4.866 4.866 0 00-6.358-2.634l-8.992 3.725a4.866 4.866 0 00-2.634 6.358z" fill="#fff" stroke="#000" stroke-width="25.42" style="paint-order:stroke fill markers"/><path d="m264.7 91.04a28.25 28.25 0 00-36.91 15.29l-46.48 112.2a28.25 28.25 0 0015.29 36.91l85.65 35.48-46.82 113a12.51 11.12 22.5 007.305 15.07 12.51 11.12 22.5 0015.82-5.488l46.82-113 85.65 35.48a28.25 28.25 0 0036.91-15.29l46.48-112.2a28.25 28.25 0 00-15.29-36.91l-108.8-45.06zm7.69 27.26 69.45 28.77-51.08 123.3-69.45-28.77a23.54 21.19 22.5 01-13.64-28.59l34.86-84.16a23.54 21.19 22.5 0129.86-10.57zm92.57 38.34 69.45 28.77a23.54 21.19 22.5 0113.64 28.59l-34.86 84.16a23.54 21.19 22.5 01-29.86 10.57l-69.45-28.77z" fill="#fff" stroke="#000" stroke-miterlimit="512" stroke-width="22.25" style="paint-order:stroke fill markers"/></g></svg>
